name C:/MyDriveSym/Projects/mobilecap/Data\Session20210903_0001\mocap\ForceDataProcessed\DJAsym2_forces.mot
datacolumns 28
datarows 10
range 1.07950000 1.08400000
endheader 
time	R_ground_force_vx	R_ground_force_vy	R_ground_force_vz	R_ground_force_px	R_ground_force_py	R_ground_force_pz	R_ground_torque_x	R_ground_torque_y	R_ground_torque_z	L_ground_force_vx	L_ground_force_vy	L_ground_force_vz	L_ground_force_px	L_ground_force_py	L_ground_force_pz	L_ground_torque_x	L_ground_torque_y	L_ground_torque_z	3_ground_force_vx	3_ground_force_vy	3_ground_force_vz	3_ground_force_px	3_ground_force_py	3_ground_force_pz	3_ground_torque_x	3_ground_torque_y	3_ground_torque_z	
          1.07950000	        -60.58104200	        660.50976000	        -44.54596800	         -0.19718000	          0.00600000	         -0.42915600	          0.00000000	         -2.49665700	          0.00000000	        -41.35906700	        487.34927700	         10.79819700	         -0.20333100	          0.00600000	         -0.67622400	          0.00000000	          1.91409300	          0.00000000	          0.00000000	          0.00000000	          0.00000000	          0.00000000	          0.00000000	          0.00000000	          0.00000000	          0.00000000	          0.00000000	
          1.08000000	        -60.21373100	        659.97399400	        -44.35523800	         -0.19691100	          0.00600000	         -0.42914900	          0.00000000	         -2.46964500	          0.00000000	        -42.22944500	        487.46572000	         10.81568500	         -0.20289400	          0.00600000	         -0.67622900	          0.00000000	          1.90224200	          0.00000000	          0.00000000	          0.00000000	          0.00000000	          0.00000000	          0.00000000	          0.00000000	          0.00000000	          0.00000000	          0.00000000	
          1.08050000	        -59.87936900	        659.49668000	        -44.15309700	         -0.19664000	          0.00600000	         -0.42914400	          0.00000000	         -2.44487400	          0.00000000	        -43.15229800	        487.46970800	         10.80092300	         -0.20243900	          0.00600000	         -0.67622900	          0.00000000	          1.89220800	          0.00000000	          0.00000000	          0.00000000	          0.00000000	          0.00000000	          0.00000000	          0.00000000	          0.00000000	          0.00000000	          0.00000000	
          1.08100000	        -59.57617100	        659.08095100	        -43.94078300	         -0.19636800	          0.00600000	         -0.42914300	          0.00000000	         -2.42232800	          0.00000000	        -44.12370000	        487.36495000	         10.75458700	         -0.20196600	          0.00600000	         -0.67622500	          0.00000000	          1.88413800	          0.00000000	          0.00000000	          0.00000000	          0.00000000	          0.00000000	          0.00000000	          0.00000000	          0.00000000	          0.00000000	          0.00000000	
          1.08150000	        -59.30232300	        658.72978000	        -43.71953800	         -0.19609500	          0.00600000	         -0.42914400	          0.00000000	         -2.40199200	          0.00000000	        -45.13958500	        487.15541000	         10.67747500	         -0.20147700	          0.00600000	         -0.67621600	          0.00000000	          1.87821000	          0.00000000	          0.00000000	          0.00000000	          0.00000000	          0.00000000	          0.00000000	          0.00000000	          0.00000000	          0.00000000	          0.00000000	
          1.08200000	        -59.05598900	        658.44593900	        -43.49059800	         -0.19582100	          0.00600000	         -0.42914800	          0.00000000	         -2.38385400	          0.00000000	        -46.19586200	        486.84528300	         10.57044100	         -0.20097200	          0.00600000	         -0.67620300	          0.00000000	          1.87458100	          0.00000000	          0.00000000	          0.00000000	          0.00000000	          0.00000000	          0.00000000	          0.00000000	          0.00000000	          0.00000000	          0.00000000	
          1.08250000	        -58.83531400	        658.23195800	        -43.25517900	         -0.19554800	          0.00600000	         -0.42915500	          0.00000000	         -2.36790300	          0.00000000	        -47.28847700	        486.43897500	         10.43434900	         -0.20045000	          0.00600000	         -0.67618500	          0.00000000	          1.87334800	          0.00000000	          0.00000000	          0.00000000	          0.00000000	          0.00000000	          0.00000000	          0.00000000	          0.00000000	          0.00000000	          0.00000000	
          1.08300000	        -58.63843400	        658.09007700	        -43.01446600	         -0.19527700	          0.00600000	         -0.42916500	          0.00000000	         -2.35412300	          0.00000000	        -48.41344000	        485.94109200	         10.27007500	         -0.19991400	          0.00600000	         -0.67616300	          0.00000000	          1.87452000	          0.00000000	          0.00000000	          0.00000000	          0.00000000	          0.00000000	          0.00000000	          0.00000000	          0.00000000	          0.00000000	          0.00000000	
          1.08350000	        -58.46347500	        658.02220700	        -42.76958500	         -0.19500700	          0.00600000	         -0.42917700	          0.00000000	         -2.34249800	          0.00000000	        -49.56682600	        485.35642800	         10.07853700	         -0.19936500	          0.00600000	         -0.67613600	          0.00000000	          1.87802000	          0.00000000	          0.00000000	          0.00000000	          0.00000000	          0.00000000	          0.00000000	          0.00000000	          0.00000000	          0.00000000	          0.00000000	
          1.08400000	        -58.30855100	        658.02987900	        -42.52159800	         -0.19473900	          0.00600000	         -0.42919200	          0.00000000	         -2.33301600	          0.00000000	        -50.74475800	        484.68996200	          9.86075200	         -0.19880100	          0.00600000	         -0.67610500	          0.00000000	          1.88371700	          0.00000000	          0.00000000	          0.00000000	          0.00000000	          0.00000000	          0.00000000	          0.00000000	          0.00000000	          0.00000000	          0.00000000	
